<mxfile host="app.diagrams.net" agent="Mozilla/5.0 (Windows NT 10.0; Win64; x64) AppleWebKit/537.36 (KHTML, like Gecko) Chrome/131.0.0.0 Safari/537.36" version="26.0.11">
  <diagram name="PÃ¡gina-1" id="b7WXN29eBrgV3XpcYu78">
    <mxGraphModel dx="2242" dy="1841" grid="1" gridSize="10" guides="1" tooltips="1" connect="1" arrows="1" fold="1" page="1" pageScale="1" pageWidth="827" pageHeight="1169" math="0" shadow="0">
      <root>
        <mxCell id="0" />
        <mxCell id="1" parent="0" />
        <mxCell id="WPpLtTHHHHpBuMI_UkXP-1" value="AWS Cloud" style="points=[[0,0],[0.25,0],[0.5,0],[0.75,0],[1,0],[1,0.25],[1,0.5],[1,0.75],[1,1],[0.75,1],[0.5,1],[0.25,1],[0,1],[0,0.75],[0,0.5],[0,0.25]];outlineConnect=0;gradientColor=none;html=1;whiteSpace=wrap;fontSize=12;fontStyle=0;container=1;pointerEvents=0;collapsible=0;recursiveResize=0;shape=mxgraph.aws4.group;grIcon=mxgraph.aws4.group_aws_cloud_alt;strokeColor=#232F3E;fillColor=none;verticalAlign=top;align=left;spacingLeft=30;fontColor=#232F3E;dashed=0;" vertex="1" parent="1">
          <mxGeometry x="-90" y="-50" width="680" height="610" as="geometry" />
        </mxCell>
        <mxCell id="WPpLtTHHHHpBuMI_UkXP-2" value="Region" style="points=[[0,0],[0.25,0],[0.5,0],[0.75,0],[1,0],[1,0.25],[1,0.5],[1,0.75],[1,1],[0.75,1],[0.5,1],[0.25,1],[0,1],[0,0.75],[0,0.5],[0,0.25]];outlineConnect=0;gradientColor=none;html=1;whiteSpace=wrap;fontSize=12;fontStyle=0;container=1;pointerEvents=0;collapsible=0;recursiveResize=0;shape=mxgraph.aws4.group;grIcon=mxgraph.aws4.group_region;strokeColor=#00A4A6;fillColor=none;verticalAlign=top;align=left;spacingLeft=30;fontColor=#147EBA;dashed=1;" vertex="1" parent="WPpLtTHHHHpBuMI_UkXP-1">
          <mxGeometry x="30" y="20" width="630" height="580" as="geometry" />
        </mxCell>
        <mxCell id="WPpLtTHHHHpBuMI_UkXP-3" value="VPC" style="points=[[0,0],[0.25,0],[0.5,0],[0.75,0],[1,0],[1,0.25],[1,0.5],[1,0.75],[1,1],[0.75,1],[0.5,1],[0.25,1],[0,1],[0,0.75],[0,0.5],[0,0.25]];outlineConnect=0;gradientColor=none;html=1;whiteSpace=wrap;fontSize=12;fontStyle=0;container=1;pointerEvents=0;collapsible=0;recursiveResize=0;shape=mxgraph.aws4.group;grIcon=mxgraph.aws4.group_vpc2;strokeColor=#8C4FFF;fillColor=none;verticalAlign=top;align=left;spacingLeft=30;fontColor=#AAB7B8;dashed=0;" vertex="1" parent="WPpLtTHHHHpBuMI_UkXP-2">
          <mxGeometry x="40" y="25" width="570" height="530" as="geometry" />
        </mxCell>
        <mxCell id="WPpLtTHHHHpBuMI_UkXP-4" value="Public subnet 10.224.1.0/24" style="points=[[0,0],[0.25,0],[0.5,0],[0.75,0],[1,0],[1,0.25],[1,0.5],[1,0.75],[1,1],[0.75,1],[0.5,1],[0.25,1],[0,1],[0,0.75],[0,0.5],[0,0.25]];outlineConnect=0;gradientColor=none;html=1;whiteSpace=wrap;fontSize=12;fontStyle=0;container=1;pointerEvents=0;collapsible=0;recursiveResize=0;shape=mxgraph.aws4.group;grIcon=mxgraph.aws4.group_security_group;grStroke=0;strokeColor=#7AA116;fillColor=#F2F6E8;verticalAlign=top;align=left;spacingLeft=30;fontColor=#248814;dashed=0;" vertex="1" parent="WPpLtTHHHHpBuMI_UkXP-3">
          <mxGeometry x="30" y="20" width="530" height="190" as="geometry" />
        </mxCell>
        <mxCell id="WPpLtTHHHHpBuMI_UkXP-16" value="" style="sketch=0;outlineConnect=0;fontColor=#232F3E;gradientColor=none;fillColor=#232F3D;strokeColor=none;dashed=0;verticalLabelPosition=bottom;verticalAlign=top;align=center;html=1;fontSize=12;fontStyle=0;aspect=fixed;pointerEvents=1;shape=mxgraph.aws4.traditional_server;" vertex="1" parent="WPpLtTHHHHpBuMI_UkXP-4">
          <mxGeometry x="177.5" y="80" width="45" height="78" as="geometry" />
        </mxCell>
        <mxCell id="WPpLtTHHHHpBuMI_UkXP-21" value="10.224.1.10" style="text;strokeColor=none;align=center;fillColor=none;html=1;verticalAlign=middle;whiteSpace=wrap;rounded=0;" vertex="1" parent="WPpLtTHHHHpBuMI_UkXP-4">
          <mxGeometry x="177.5" y="158" width="60" height="30" as="geometry" />
        </mxCell>
        <mxCell id="WPpLtTHHHHpBuMI_UkXP-22" value="" style="sketch=0;outlineConnect=0;fontColor=#232F3E;gradientColor=none;fillColor=#232F3D;strokeColor=none;dashed=0;verticalLabelPosition=bottom;verticalAlign=top;align=center;html=1;fontSize=12;fontStyle=0;aspect=fixed;pointerEvents=1;shape=mxgraph.aws4.traditional_server;" vertex="1" parent="WPpLtTHHHHpBuMI_UkXP-4">
          <mxGeometry x="306.5" y="80" width="45" height="78" as="geometry" />
        </mxCell>
        <mxCell id="WPpLtTHHHHpBuMI_UkXP-47" value="NGINX- Proxy inverso" style="text;strokeColor=none;align=center;fillColor=none;html=1;verticalAlign=middle;whiteSpace=wrap;rounded=0;" vertex="1" parent="WPpLtTHHHHpBuMI_UkXP-4">
          <mxGeometry x="242.5" y="104" width="60" height="30" as="geometry" />
        </mxCell>
        <mxCell id="WPpLtTHHHHpBuMI_UkXP-53" value="&lt;div&gt;Gateway&amp;nbsp;&lt;span style=&quot;background-color: transparent; color: light-dark(rgb(0, 0, 0), rgb(255, 255, 255));&quot;&gt;NAT&lt;/span&gt;&lt;/div&gt;" style="text;strokeColor=none;align=center;fillColor=none;html=1;verticalAlign=middle;whiteSpace=wrap;rounded=0;" vertex="1" parent="WPpLtTHHHHpBuMI_UkXP-4">
          <mxGeometry x="196.5" y="50" width="140" height="30" as="geometry" />
        </mxCell>
        <mxCell id="WPpLtTHHHHpBuMI_UkXP-9" value="" style="sketch=0;outlineConnect=0;fontColor=#232F3E;gradientColor=none;fillColor=#8C4FFF;strokeColor=none;dashed=0;verticalLabelPosition=bottom;verticalAlign=top;align=center;html=1;fontSize=12;fontStyle=0;aspect=fixed;pointerEvents=1;shape=mxgraph.aws4.nat_gateway;rotation=-90;" vertex="1" parent="WPpLtTHHHHpBuMI_UkXP-4">
          <mxGeometry x="242.5" width="50" height="50" as="geometry" />
        </mxCell>
        <mxCell id="WPpLtTHHHHpBuMI_UkXP-5" value="Private subnet 10.224.2.0/24" style="points=[[0,0],[0.25,0],[0.5,0],[0.75,0],[1,0],[1,0.25],[1,0.5],[1,0.75],[1,1],[0.75,1],[0.5,1],[0.25,1],[0,1],[0,0.75],[0,0.5],[0,0.25]];outlineConnect=0;gradientColor=none;html=1;whiteSpace=wrap;fontSize=12;fontStyle=0;container=1;pointerEvents=0;collapsible=0;recursiveResize=0;shape=mxgraph.aws4.group;grIcon=mxgraph.aws4.group_security_group;grStroke=0;strokeColor=#00A4A6;fillColor=#E6F6F7;verticalAlign=top;align=left;spacingLeft=30;fontColor=#147EBA;dashed=0;" vertex="1" parent="WPpLtTHHHHpBuMI_UkXP-3">
          <mxGeometry x="30" y="240" width="240" height="260" as="geometry" />
        </mxCell>
        <mxCell id="WPpLtTHHHHpBuMI_UkXP-11" value="" style="sketch=0;outlineConnect=0;fontColor=#232F3E;gradientColor=none;fillColor=#C925D1;strokeColor=none;dashed=0;verticalLabelPosition=bottom;verticalAlign=top;align=center;html=1;fontSize=12;fontStyle=0;aspect=fixed;pointerEvents=1;shape=mxgraph.aws4.rds_mysql_instance;" vertex="1" parent="WPpLtTHHHHpBuMI_UkXP-5">
          <mxGeometry x="10" y="110" width="78" height="78" as="geometry" />
        </mxCell>
        <mxCell id="WPpLtTHHHHpBuMI_UkXP-12" value="" style="sketch=0;outlineConnect=0;fontColor=#232F3E;gradientColor=none;fillColor=#C925D1;strokeColor=none;dashed=0;verticalLabelPosition=bottom;verticalAlign=top;align=center;html=1;fontSize=12;fontStyle=0;aspect=fixed;pointerEvents=1;shape=mxgraph.aws4.rds_mysql_instance;" vertex="1" parent="WPpLtTHHHHpBuMI_UkXP-5">
          <mxGeometry x="150" y="110" width="78" height="78" as="geometry" />
        </mxCell>
        <mxCell id="WPpLtTHHHHpBuMI_UkXP-14" value="" style="sketch=0;points=[[0,0,0],[0.25,0,0],[0.5,0,0],[0.75,0,0],[1,0,0],[0,1,0],[0.25,1,0],[0.5,1,0],[0.75,1,0],[1,1,0],[0,0.25,0],[0,0.5,0],[0,0.75,0],[1,0.25,0],[1,0.5,0],[1,0.75,0]];outlineConnect=0;fontColor=#232F3E;fillColor=#ED7100;strokeColor=#ffffff;dashed=0;verticalLabelPosition=bottom;verticalAlign=top;align=center;html=1;fontSize=12;fontStyle=0;aspect=fixed;shape=mxgraph.aws4.resourceIcon;resIcon=mxgraph.aws4.compute;" vertex="1" parent="WPpLtTHHHHpBuMI_UkXP-5">
          <mxGeometry x="88" y="30" width="78" height="78" as="geometry" />
        </mxCell>
        <mxCell id="WPpLtTHHHHpBuMI_UkXP-42" value="10.224.2.100" style="text;strokeColor=none;align=center;fillColor=none;html=1;verticalAlign=middle;whiteSpace=wrap;rounded=0;" vertex="1" parent="WPpLtTHHHHpBuMI_UkXP-5">
          <mxGeometry x="19" y="68" width="60" height="30" as="geometry" />
        </mxCell>
        <mxCell id="WPpLtTHHHHpBuMI_UkXP-49" value="servidor XMPP" style="text;strokeColor=none;align=center;fillColor=none;html=1;verticalAlign=middle;whiteSpace=wrap;rounded=0;" vertex="1" parent="WPpLtTHHHHpBuMI_UkXP-5">
          <mxGeometry x="19" y="43" width="60" height="30" as="geometry" />
        </mxCell>
        <mxCell id="WPpLtTHHHHpBuMI_UkXP-51" value="Servidor MySql Esclavo&lt;div&gt;10.224.2.201&lt;/div&gt;" style="text;strokeColor=none;align=center;fillColor=none;html=1;verticalAlign=middle;whiteSpace=wrap;rounded=0;" vertex="1" parent="WPpLtTHHHHpBuMI_UkXP-5">
          <mxGeometry x="159" y="210" width="60" height="30" as="geometry" />
        </mxCell>
        <mxCell id="WPpLtTHHHHpBuMI_UkXP-6" value="Private subnet 10.224.2.0/24" style="points=[[0,0],[0.25,0],[0.5,0],[0.75,0],[1,0],[1,0.25],[1,0.5],[1,0.75],[1,1],[0.75,1],[0.5,1],[0.25,1],[0,1],[0,0.75],[0,0.5],[0,0.25]];outlineConnect=0;gradientColor=none;html=1;whiteSpace=wrap;fontSize=12;fontStyle=0;container=1;pointerEvents=0;collapsible=0;recursiveResize=0;shape=mxgraph.aws4.group;grIcon=mxgraph.aws4.group_security_group;grStroke=0;strokeColor=#00A4A6;fillColor=#E6F6F7;verticalAlign=top;align=left;spacingLeft=30;fontColor=#147EBA;dashed=0;" vertex="1" parent="WPpLtTHHHHpBuMI_UkXP-3">
          <mxGeometry x="337" y="240" width="210" height="260" as="geometry" />
        </mxCell>
        <mxCell id="WPpLtTHHHHpBuMI_UkXP-10" value="" style="sketch=0;outlineConnect=0;fontColor=#232F3E;gradientColor=none;fillColor=#C925D1;strokeColor=none;dashed=0;verticalLabelPosition=bottom;verticalAlign=top;align=center;html=1;fontSize=12;fontStyle=0;aspect=fixed;pointerEvents=1;shape=mxgraph.aws4.rds_instance_alt;" vertex="1" parent="WPpLtTHHHHpBuMI_UkXP-6">
          <mxGeometry x="76" y="120" width="78" height="78" as="geometry" />
        </mxCell>
        <mxCell id="WPpLtTHHHHpBuMI_UkXP-15" value="" style="sketch=0;points=[[0,0,0],[0.25,0,0],[0.5,0,0],[0.75,0,0],[1,0,0],[0,1,0],[0.25,1,0],[0.5,1,0],[0.75,1,0],[1,1,0],[0,0.25,0],[0,0.5,0],[0,0.75,0],[1,0.25,0],[1,0.5,0],[1,0.75,0]];outlineConnect=0;fontColor=#232F3E;fillColor=#ED7100;strokeColor=#ffffff;dashed=0;verticalLabelPosition=bottom;verticalAlign=top;align=center;html=1;fontSize=12;fontStyle=0;aspect=fixed;shape=mxgraph.aws4.resourceIcon;resIcon=mxgraph.aws4.compute;" vertex="1" parent="WPpLtTHHHHpBuMI_UkXP-6">
          <mxGeometry x="76" y="30" width="78" height="78" as="geometry" />
        </mxCell>
        <mxCell id="WPpLtTHHHHpBuMI_UkXP-45" value="10.224.3.100" style="text;strokeColor=none;align=center;fillColor=none;html=1;verticalAlign=middle;whiteSpace=wrap;rounded=0;" vertex="1" parent="WPpLtTHHHHpBuMI_UkXP-6">
          <mxGeometry x="6" y="76" width="60" height="30" as="geometry" />
        </mxCell>
        <mxCell id="WPpLtTHHHHpBuMI_UkXP-50" value="Servidor Ticketing Wordpress" style="text;strokeColor=none;align=center;fillColor=none;html=1;verticalAlign=middle;whiteSpace=wrap;rounded=0;" vertex="1" parent="WPpLtTHHHHpBuMI_UkXP-6">
          <mxGeometry x="12" y="40" width="60" height="30" as="geometry" />
        </mxCell>
        <mxCell id="WPpLtTHHHHpBuMI_UkXP-46" value="Servidor RDS&lt;div&gt;10.224.3.200&lt;/div&gt;" style="text;strokeColor=none;align=center;fillColor=none;html=1;verticalAlign=middle;whiteSpace=wrap;rounded=0;" vertex="1" parent="WPpLtTHHHHpBuMI_UkXP-3">
          <mxGeometry x="427" y="450" width="60" height="30" as="geometry" />
        </mxCell>
        <mxCell id="WPpLtTHHHHpBuMI_UkXP-23" value="10.224.1.20" style="text;strokeColor=none;align=center;fillColor=none;html=1;verticalAlign=middle;whiteSpace=wrap;rounded=0;" vertex="1" parent="WPpLtTHHHHpBuMI_UkXP-3">
          <mxGeometry x="340" y="178" width="60" height="30" as="geometry" />
        </mxCell>
        <mxCell id="WPpLtTHHHHpBuMI_UkXP-59" value="Availability Zone&amp;nbsp; Wordpress" style="fillColor=none;strokeColor=#147EBA;dashed=1;verticalAlign=top;fontStyle=0;fontColor=#147EBA;whiteSpace=wrap;html=1;" vertex="1" parent="WPpLtTHHHHpBuMI_UkXP-3">
          <mxGeometry x="327" y="5" width="230" height="510" as="geometry" />
        </mxCell>
        <mxCell id="WPpLtTHHHHpBuMI_UkXP-58" value="Availability Zone&amp;nbsp; XMPP Openfire" style="fillColor=none;strokeColor=#147EBA;dashed=1;verticalAlign=top;fontStyle=0;fontColor=#147EBA;whiteSpace=wrap;html=1;" vertex="1" parent="WPpLtTHHHHpBuMI_UkXP-3">
          <mxGeometry x="22.5" y="10" width="255" height="500" as="geometry" />
        </mxCell>
        <mxCell id="WPpLtTHHHHpBuMI_UkXP-68" style="edgeStyle=orthogonalEdgeStyle;rounded=0;orthogonalLoop=1;jettySize=auto;html=1;exitX=0.5;exitY=1;exitDx=0;exitDy=0;" edge="1" parent="WPpLtTHHHHpBuMI_UkXP-3" source="WPpLtTHHHHpBuMI_UkXP-58" target="WPpLtTHHHHpBuMI_UkXP-58">
          <mxGeometry relative="1" as="geometry" />
        </mxCell>
        <mxCell id="WPpLtTHHHHpBuMI_UkXP-40" value="Servidor MySql Maestro&lt;div&gt;10.224.2.200&lt;/div&gt;" style="text;strokeColor=none;align=center;fillColor=none;html=1;verticalAlign=middle;whiteSpace=wrap;rounded=0;" vertex="1" parent="WPpLtTHHHHpBuMI_UkXP-2">
          <mxGeometry x="89" y="478" width="60" height="30" as="geometry" />
        </mxCell>
        <mxCell id="WPpLtTHHHHpBuMI_UkXP-65" value="Julio Pocohuanca" style="text;strokeColor=none;align=center;fillColor=none;html=1;verticalAlign=middle;whiteSpace=wrap;rounded=0;" vertex="1" parent="1">
          <mxGeometry x="120" y="-80" width="200" height="30" as="geometry" />
        </mxCell>
      </root>
    </mxGraphModel>
  </diagram>
</mxfile>
